<svg version="1.1" xmlns="http://www.w3.org/2000/svg" xmlns:xlink="http://www.w3.org/1999/xlink" width="400" height="400" viewBox="0 0 400 400"><defs/><g><rect fill="rgb(255,255,255)" stroke="none" x="0" y="0" width="400" height="400" transform="matrix(1 0 0 1 0 0)" fill-opacity="1"/><path fill="none" stroke="rgb(19,19,19)" paint-order="fill stroke markers" d=" M 0 200 C 0 89.54305004000001 89.54305004000001 0 200 0 C 310.45694996 0 400 89.54305004000001 400 200 C 400 310.45694996 310.45694996 400 200 400 C 89.54305004000001 400 0 310.45694996 0 200" stroke-opacity="1" stroke-linecap="round" stroke-miterlimit="10" stroke-dasharray=""/><path fill="none" stroke="rgb(19,19,19)" paint-order="fill stroke markers" d=" M 147.55893094221895 200 C 147.55893094221895 171.0375972961789 171.0375972961789 147.55893094221895 200 147.55893094221895 C 228.9624027038211 147.55893094221895 252.44106905778105 171.0375972961789 252.44106905778105 200 C 252.44106905778105 228.9624027038211 228.9624027038211 252.44106905778105 200 252.44106905778105 C 171.0375972961789 252.44106905778105 147.55893094221895 228.9624027038211 147.55893094221895 200" stroke-opacity="1" stroke-linecap="round" stroke-miterlimit="10" stroke-dasharray=""/><path fill="none" stroke="rgb(19,19,19)" paint-order="fill stroke markers" d=" M 149.78375901025402 200 C 149.78375901025402 172.26633590908165 172.26633590908165 149.78375901025402 200 149.78375901025402 C 227.73366409091835 149.78375901025402 250.21624098974598 172.26633590908165 250.21624098974598 200 C 250.21624098974598 227.73366409091835 227.73366409091835 250.21624098974598 200 250.21624098974598 C 172.26633590908165 250.21624098974598 149.78375901025402 227.73366409091835 149.78375901025402 200" stroke-opacity="1" stroke-linecap="round" stroke-miterlimit="10" stroke-dasharray=""/><path fill="none" stroke="rgb(19,19,19)" paint-order="fill stroke markers" d=" M 8.998858001194463 200 C 8.998858001194463 94.51298207967541 94.51298207967541 8.998858001194463 200 8.998858001194463 C 305.4870179203246 8.998858001194463 391.00114199880556 94.51298207967541 391.00114199880556 200 C 391.00114199880556 305.4870179203246 305.4870179203246 391.00114199880556 200 391.00114199880556 C 94.51298207967541 391.00114199880556 8.998858001194463 305.4870179203246 8.998858001194463 200" stroke-opacity="1" stroke-linecap="round" stroke-miterlimit="10" stroke-dasharray=""/><path fill="none" stroke="rgb(19,19,19)" paint-order="fill stroke markers" d=" M 178.96456687143117 200 C 178.96456687143117 188.38245107765374 188.38245107765374 178.96456687143117 200 178.96456687143117 C 211.61754892234626 178.96456687143117 221.03543312856885 188.38245107765374 221.03543312856885 200 C 221.03543312856885 211.61754892234626 211.61754892234626 221.03543312856885 200 221.03543312856885 C 188.38245107765374 221.03543312856885 178.96456687143117 211.61754892234626 178.96456687143117 200" stroke-opacity="1" stroke-linecap="round" stroke-miterlimit="10" stroke-dasharray=""/><path fill="none" stroke="rgb(19,19,19)" paint-order="fill stroke markers" d=" M 0 200 C 0 89.54305004000001 89.54305004000001 0 200 0 C 310.45694996 0 400 89.54305004000001 400 200 C 400 310.45694996 310.45694996 400 200 400 C 89.54305004000001 400 0 310.45694996 0 200" stroke-opacity="1" stroke-linecap="round" stroke-miterlimit="10" stroke-dasharray=""/><path fill="none" stroke="rgb(19,19,19)" paint-order="fill stroke markers" d=" M 39.39444332781915 200 C 39.39444332781915 111.30000031681489 111.30000031681489 39.39444332781915 200 39.39444332781915 C 288.6999996831851 39.39444332781915 360.60555667218085 111.30000031681489 360.60555667218085 200 C 360.60555667218085 288.6999996831851 288.6999996831851 360.60555667218085 200 360.60555667218085 C 111.30000031681489 360.60555667218085 39.39444332781915 288.6999996831851 39.39444332781915 200" stroke-opacity="1" stroke-linecap="round" stroke-miterlimit="10" stroke-dasharray=""/><path fill="none" stroke="rgb(19,19,19)" paint-order="fill stroke markers" d=" M 125.38711335018743 200 C 125.38711335018743 158.7924405647525 158.7924405647525 125.38711335018743 200 125.38711335018743 C 241.2075594352475 125.38711335018743 274.6128866498126 158.7924405647525 274.6128866498126 200 C 274.6128866498126 241.2075594352475 241.2075594352475 274.6128866498126 200 274.6128866498126 C 158.7924405647525 274.6128866498126 125.38711335018743 241.2075594352475 125.38711335018743 200" stroke-opacity="1" stroke-linecap="round" stroke-miterlimit="10" stroke-dasharray=""/><path fill="none" stroke="rgb(19,19,19)" paint-order="fill stroke markers" d=" M 86.200774387155 200 C 86.200774387155 137.15042315497615 137.15042315497615 86.200774387155 200 86.200774387155 C 262.8495768450239 86.200774387155 313.799225612845 137.15042315497615 313.799225612845 200 C 313.799225612845 262.8495768450239 262.8495768450239 313.799225612845 200 313.799225612845 C 137.15042315497615 313.799225612845 86.200774387155 262.8495768450239 86.200774387155 200" stroke-opacity="1" stroke-linecap="round" stroke-miterlimit="10" stroke-dasharray=""/><path fill="none" stroke="rgb(19,19,19)" paint-order="fill stroke markers" d=" M 81.60127704537953 200 C 81.60127704537953 134.6101909163679 134.6101909163679 81.60127704537953 200 81.60127704537953 C 265.3898090836321 81.60127704537953 318.39872295462044 134.6101909163679 318.39872295462044 200 C 318.39872295462044 265.3898090836321 265.3898090836321 318.39872295462044 200 318.39872295462044 C 134.6101909163679 318.39872295462044 81.60127704537953 265.3898090836321 81.60127704537953 200" stroke-opacity="1" stroke-linecap="round" stroke-miterlimit="10" stroke-dasharray=""/><path fill="none" stroke="rgb(19,19,19)" paint-order="fill stroke markers" d=" M 199.63519652266046 200 C 199.63519652266046 199.79852460279136 199.79852460279136 199.63519652266046 200 199.63519652266046 C 200.20147539720864 199.63519652266046 200.36480347733954 199.79852460279136 200.36480347733954 200 C 200.36480347733954 200.20147539720864 200.20147539720864 200.36480347733954 200 200.36480347733954 C 199.79852460279136 200.36480347733954 199.63519652266046 200.20147539720864 199.63519652266046 200" stroke-opacity="1" stroke-linecap="round" stroke-miterlimit="10" stroke-dasharray=""/><path fill="none" stroke="rgb(19,19,19)" paint-order="fill stroke markers" d=" M 105.6178349489102 200 C 105.6178349489102 147.87416958917657 147.87416958917657 105.6178349489102 200 105.6178349489102 C 252.12583041082343 105.6178349489102 294.3821650510898 147.87416958917657 294.3821650510898 200 C 294.3821650510898 252.12583041082343 252.12583041082343 294.3821650510898 200 294.3821650510898 C 147.87416958917657 294.3821650510898 105.6178349489102 252.12583041082343 105.6178349489102 200" stroke-opacity="1" stroke-linecap="round" stroke-miterlimit="10" stroke-dasharray=""/><path fill="none" stroke="rgb(19,19,19)" paint-order="fill stroke markers" d=" M 45.18656615157167 200 C 45.18656615157167 114.49890142134191 114.49890142134191 45.18656615157167 200 45.18656615157167 C 285.5010985786581 45.18656615157167 354.8134338484283 114.49890142134191 354.8134338484283 200 C 354.8134338484283 285.5010985786581 285.5010985786581 354.8134338484283 200 354.8134338484283 C 114.49890142134191 354.8134338484283 45.18656615157167 285.5010985786581 45.18656615157167 200" stroke-opacity="1" stroke-linecap="round" stroke-miterlimit="10" stroke-dasharray=""/><path fill="none" stroke="rgb(19,19,19)" paint-order="fill stroke markers" d=" M 47.17437083169787 200 C 47.17437083169787 115.59673563175669 115.59673563175669 47.17437083169787 200 47.17437083169787 C 284.4032643682433 47.17437083169787 352.82562916830216 115.59673563175669 352.82562916830216 200 C 352.82562916830216 284.4032643682433 284.4032643682433 352.82562916830216 200 352.82562916830216 C 115.59673563175669 352.82562916830216 47.17437083169787 284.4032643682433 47.17437083169787 200" stroke-opacity="1" stroke-linecap="round" stroke-miterlimit="10" stroke-dasharray=""/><path fill="none" stroke="rgb(19,19,19)" paint-order="fill stroke markers" d=" M 181.15399525440924 200 C 181.15399525440924 189.5916389843518 189.5916389843518 181.15399525440924 200 181.15399525440924 C 210.4083610156482 181.15399525440924 218.84600474559076 189.5916389843518 218.84600474559076 200 C 218.84600474559076 210.4083610156482 210.4083610156482 218.84600474559076 200 218.84600474559076 C 189.5916389843518 218.84600474559076 181.15399525440924 210.4083610156482 181.15399525440924 200" stroke-opacity="1" stroke-linecap="round" stroke-miterlimit="10" stroke-dasharray=""/><path fill="none" stroke="rgb(19,19,19)" paint-order="fill stroke markers" d=" M 80.36187483166007 200 C 80.36187483166007 133.92568797486229 133.92568797486229 80.36187483166007 200 80.36187483166007 C 266.0743120251377 80.36187483166007 319.6381251683399 133.92568797486229 319.6381251683399 200 C 319.6381251683399 266.0743120251377 266.0743120251377 319.6381251683399 200 319.6381251683399 C 133.92568797486229 319.6381251683399 80.36187483166007 266.0743120251377 80.36187483166007 200" stroke-opacity="1" stroke-linecap="round" stroke-miterlimit="10" stroke-dasharray=""/><path fill="none" stroke="rgb(19,19,19)" paint-order="fill stroke markers" d=" M 77.17899417216013 200 C 77.17899417216013 132.16783152618711 132.16783152618711 77.17899417216013 200 77.17899417216013 C 267.8321684738129 77.17899417216013 322.8210058278399 132.16783152618711 322.8210058278399 200 C 322.8210058278399 267.8321684738129 267.8321684738129 322.8210058278399 200 322.8210058278399 C 132.16783152618711 322.8210058278399 77.17899417216013 267.8321684738129 77.17899417216013 200" stroke-opacity="1" stroke-linecap="round" stroke-miterlimit="10" stroke-dasharray=""/><path fill="none" stroke="rgb(19,19,19)" paint-order="fill stroke markers" d=" M 151.42949208938867 200 C 151.42949208938867 173.1752491909291 173.1752491909291 151.42949208938867 200 151.42949208938867 C 226.8247508090709 151.42949208938867 248.57050791061135 173.1752491909291 248.57050791061135 200 C 248.57050791061135 226.8247508090709 226.8247508090709 248.57050791061135 200 248.57050791061135 C 173.1752491909291 248.57050791061135 151.42949208938867 226.8247508090709 151.42949208938867 200" stroke-opacity="1" stroke-linecap="round" stroke-miterlimit="10" stroke-dasharray=""/><path fill="none" stroke="rgb(19,19,19)" paint-order="fill stroke markers" d=" M 193.85921532931815 200 C 193.85921532931815 196.6085382745768 196.6085382745768 193.85921532931815 200 193.85921532931815 C 203.3914617254232 193.85921532931815 206.14078467068188 196.6085382745768 206.14078467068188 200 C 206.14078467068188 203.3914617254232 203.3914617254232 206.14078467068188 200 206.14078467068188 C 196.6085382745768 206.14078467068188 193.85921532931815 203.3914617254232 193.85921532931815 200" stroke-opacity="1" stroke-linecap="round" stroke-miterlimit="10" stroke-dasharray=""/><path fill="none" stroke="rgb(19,19,19)" paint-order="fill stroke markers" d=" M 0 200 C 0 89.54305004000001 89.54305004000001 0 200 0 C 310.45694996 0 400 89.54305004000001 400 200 C 400 310.45694996 310.45694996 400 200 400 C 89.54305004000001 400 0 310.45694996 0 200" stroke-opacity="1" stroke-linecap="round" stroke-miterlimit="10" stroke-dasharray=""/><path fill="none" stroke="rgb(19,19,19)" paint-order="fill stroke markers" d=" M 69.62429167948343 200 C 69.62429167948343 127.99548455020573 127.99548455020573 69.62429167948343 200 69.62429167948343 C 272.00451544979427 69.62429167948343 330.37570832051654 127.99548455020573 330.37570832051654 200 C 330.37570832051654 272.00451544979427 272.00451544979427 330.37570832051654 200 330.37570832051654 C 127.99548455020573 330.37570832051654 69.62429167948343 272.00451544979427 69.62429167948343 200" stroke-opacity="1" stroke-linecap="round" stroke-miterlimit="10" stroke-dasharray=""/><path fill="none" stroke="rgb(19,19,19)" paint-order="fill stroke markers" d=" M 103.63844939095164 200 C 103.63844939095164 146.78098513154168 146.78098513154168 103.63844939095164 200 103.63844939095164 C 253.21901486845832 103.63844939095164 296.3615506090484 146.78098513154168 296.3615506090484 200 C 296.3615506090484 253.21901486845832 253.21901486845832 296.3615506090484 200 296.3615506090484 C 146.78098513154168 296.3615506090484 103.63844939095164 253.21901486845832 103.63844939095164 200" stroke-opacity="1" stroke-linecap="round" stroke-miterlimit="10" stroke-dasharray=""/><path fill="none" stroke="rgb(19,19,19)" paint-order="fill stroke markers" d=" M 102.18516883923884 200 C 102.18516883923884 145.9783604456498 145.9783604456498 102.18516883923884 200 102.18516883923884 C 254.0216395543502 102.18516883923884 297.8148311607612 145.9783604456498 297.8148311607612 200 C 297.8148311607612 254.0216395543502 254.0216395543502 297.8148311607612 200 297.8148311607612 C 145.9783604456498 297.8148311607612 102.18516883923884 254.0216395543502 102.18516883923884 200" stroke-opacity="1" stroke-linecap="round" stroke-miterlimit="10" stroke-dasharray=""/><path fill="none" stroke="rgb(19,19,19)" paint-order="fill stroke markers" d=" M 181.4098679523267 200 C 181.4098679523267 189.73295357330178 189.73295357330178 181.4098679523267 200 181.4098679523267 C 210.26704642669822 181.4098679523267 218.59013204767328 189.73295357330178 218.59013204767328 200 C 218.59013204767328 210.26704642669822 210.26704642669822 218.59013204767328 200 218.59013204767328 C 189.73295357330178 218.59013204767328 181.4098679523267 210.26704642669822 181.4098679523267 200" stroke-opacity="1" stroke-linecap="round" stroke-miterlimit="10" stroke-dasharray=""/><path fill="none" stroke="rgb(19,19,19)" paint-order="fill stroke markers" d=" M 199.72241366552856 200 C 199.72241366552856 199.84669330071853 199.84669330071853 199.72241366552856 200 199.72241366552856 C 200.15330669928147 199.72241366552856 200.27758633447147 199.84669330071853 200.27758633447147 200 C 200.27758633447147 200.15330669928147 200.15330669928147 200.27758633447147 200 200.27758633447147 C 199.84669330071853 200.27758633447147 199.72241366552856 200.15330669928147 199.72241366552856 200" stroke-opacity="1" stroke-linecap="round" stroke-miterlimit="10" stroke-dasharray=""/><path fill="none" stroke="rgb(19,19,19)" paint-order="fill stroke markers" d=" M 108.90859510854028 200 C 108.90859510854028 149.6916062405897 149.6916062405897 108.90859510854028 200 108.90859510854028 C 250.3083937594103 108.90859510854028 291.0914048914597 149.6916062405897 291.0914048914597 200 C 291.0914048914597 250.3083937594103 250.3083937594103 291.0914048914597 200 291.0914048914597 C 149.6916062405897 291.0914048914597 108.90859510854028 250.3083937594103 108.90859510854028 200" stroke-opacity="1" stroke-linecap="round" stroke-miterlimit="10" stroke-dasharray=""/><path fill="none" stroke="rgb(19,19,19)" paint-order="fill stroke markers" d=" M 159.36336211843152 200 C 159.36336211843152 177.55700461486475 177.55700461486475 159.36336211843152 200 159.36336211843152 C 222.44299538513525 159.36336211843152 240.6366378815685 177.55700461486475 240.6366378815685 200 C 240.6366378815685 222.44299538513525 222.44299538513525 240.6366378815685 200 240.6366378815685 C 177.55700461486475 240.6366378815685 159.36336211843152 222.44299538513525 159.36336211843152 200" stroke-opacity="1" stroke-linecap="round" stroke-miterlimit="10" stroke-dasharray=""/><path fill="none" stroke="rgb(19,19,19)" paint-order="fill stroke markers" d=" M 152.31623589842178 200 C 152.31623589842178 173.66498427363766 173.66498427363766 152.31623589842178 200 152.31623589842178 C 226.33501572636234 152.31623589842178 247.68376410157822 173.66498427363766 247.68376410157822 200 C 247.68376410157822 226.33501572636234 226.33501572636234 247.68376410157822 200 247.68376410157822 C 173.66498427363766 247.68376410157822 152.31623589842178 226.33501572636234 152.31623589842178 200" stroke-opacity="1" stroke-linecap="round" stroke-miterlimit="10" stroke-dasharray=""/><path fill="none" stroke="rgb(19,19,19)" paint-order="fill stroke markers" d=" M 56.829651411076725 200 C 56.829651411076725 120.92919985078773 120.92919985078773 56.829651411076725 200 56.829651411076725 C 279.0708001492123 56.829651411076725 343.1703485889233 120.92919985078773 343.1703485889233 200 C 343.1703485889233 279.0708001492123 279.0708001492123 343.1703485889233 200 343.1703485889233 C 120.92919985078773 343.1703485889233 56.829651411076725 279.0708001492123 56.829651411076725 200" stroke-opacity="1" stroke-linecap="round" stroke-miterlimit="10" stroke-dasharray=""/></g></svg>