<svg version="1.1" xmlns="http://www.w3.org/2000/svg" xmlns:xlink="http://www.w3.org/1999/xlink" width="400" height="400" viewBox="0 0 400 400"><defs/><g><rect fill="rgb(255,255,255)" stroke="none" x="0" y="0" width="400" height="400" transform="matrix(1 0 0 1 0 0)" fill-opacity="1"/><path fill="none" stroke="rgb(255,0,0)" paint-order="fill stroke markers" d=" M 100 300 C 100 244.77152502 144.77152502 200 200 200 C 255.22847498 200 300 244.77152502 300 300 C 300 355.22847498 255.22847498 400 200 400 C 144.77152502 400 100 355.22847498 100 300" stroke-opacity="1" stroke-linecap="round" stroke-miterlimit="10" stroke-dasharray=""/><path fill="none" stroke="rgb(255,0,0)" paint-order="fill stroke markers" d=" M 13.397459621556123 250 C 13.397459621556123 194.77152502 58.16898464155613 150 113.39745962155612 150 C 168.6259346015561 150 213.39745962155612 194.77152502 213.39745962155612 250 C 213.39745962155612 305.22847498 168.6259346015561 350 113.39745962155612 350 C 58.16898464155613 350 13.397459621556123 305.22847498 13.397459621556123 250" stroke-opacity="1" stroke-linecap="round" stroke-miterlimit="10" stroke-dasharray=""/><path fill="none" stroke="rgb(255,0,0)" paint-order="fill stroke markers" d=" M 13.397459621556138 150 C 13.397459621556138 94.77152502000001 58.16898464155614 50 113.39745962155614 50 C 168.62593460155614 50 213.39745962155615 94.77152502000001 213.39745962155615 150 C 213.39745962155615 205.22847498 168.62593460155614 250 113.39745962155614 250 C 58.16898464155614 250 13.397459621556138 205.22847498 13.397459621556138 150" stroke-opacity="1" stroke-linecap="round" stroke-miterlimit="10" stroke-dasharray=""/><path fill="none" stroke="rgb(255,0,0)" paint-order="fill stroke markers" d=" M 99.99999999999997 100 C 99.99999999999997 44.771525020000006 144.77152501999998 0 199.99999999999997 0 C 255.22847497999996 0 300 44.771525020000006 300 100 C 300 155.22847498 255.22847497999996 200 199.99999999999997 200 C 144.77152501999998 200 99.99999999999997 155.22847498 99.99999999999997 100" stroke-opacity="1" stroke-linecap="round" stroke-miterlimit="10" stroke-dasharray=""/><path fill="none" stroke="rgb(255,0,0)" paint-order="fill stroke markers" d=" M 186.60254037844385 149.99999999999994 C 186.60254037844385 94.77152501999996 231.37406539844386 49.99999999999994 286.60254037844385 49.99999999999994 C 341.83101535844384 49.99999999999994 386.60254037844385 94.77152501999996 386.60254037844385 149.99999999999994 C 386.60254037844385 205.22847497999993 341.83101535844384 249.99999999999994 286.60254037844385 249.99999999999994 C 231.37406539844386 249.99999999999994 186.60254037844385 205.22847497999993 186.60254037844385 149.99999999999994" stroke-opacity="1" stroke-linecap="round" stroke-miterlimit="10" stroke-dasharray=""/><path fill="none" stroke="rgb(255,0,0)" paint-order="fill stroke markers" d=" M 186.60254037844385 250 C 186.60254037844385 194.77152502 231.37406539844386 150 286.60254037844385 150 C 341.83101535844384 150 386.60254037844385 194.77152502 386.60254037844385 250 C 386.60254037844385 305.22847498 341.83101535844384 350 286.60254037844385 350 C 231.37406539844386 350 186.60254037844385 305.22847498 186.60254037844385 250" stroke-opacity="1" stroke-linecap="round" stroke-miterlimit="10" stroke-dasharray=""/><path fill="none" stroke="rgb(0,0,0)" paint-order="fill stroke markers" d=" M 0 200 C 0 89.54305004000001 89.54305004000001 0 200 0 C 310.45694996 0 400 89.54305004000001 400 200 C 400 310.45694996 310.45694996 400 200 400 C 89.54305004000001 400 0 310.45694996 0 200" stroke-opacity="1" stroke-linecap="round" stroke-miterlimit="10" stroke-width="2" stroke-dasharray=""/></g></svg>